<?xml version="1.0" encoding="UTF-8"?>
<svg version="1.1" xmlns="http://www.w3.org/2000/svg" width="512" height="512">
<path d="M0 0 C7.72353122 2.10788488 15.01837353 4.91868951 22.375 8.0625 C23.51332275 8.54783203 24.65164551 9.03316406 25.82446289 9.53320312 C63.51874168 25.78260423 98.16529855 47.71739284 128 76 C128.75265137 76.70962891 128.75265137 76.70962891 129.52050781 77.43359375 C136.97875747 84.51293555 143.54442693 92.01674791 149.69287109 100.25732422 C150.9385743 101.91810672 152.21059776 103.55518137 153.48828125 105.19140625 C163.65097231 118.48481288 171.34716673 133.82078849 177.25 149.4375 C177.53770264 150.18733154 177.82540527 150.93716309 178.12182617 151.7097168 C179.88306704 156.66121422 180.38143044 160.74411286 180 166 C175.93014805 174.47885824 167.6884285 178.60104007 159.28125 181.90234375 C136.63523601 189.47797462 107.77178093 190.26113159 85.8984375 180.015625 C79.10693442 176.15872202 73.59173795 170.38001673 68 165 C67.42910645 164.45633789 66.85821289 163.91267578 66.27001953 163.35253906 C57.67702668 155.13728629 50.06322572 146.55644499 43 137 C42.36650635 136.15767822 42.36650635 136.15767822 41.72021484 135.29833984 C11.95839421 95.65783576 -0.9527576 49.27874039 0 0 Z " fill="#000000" transform="translate(277,169)"/>
<path d="M0 0 C1.49423606 52.13223595 -13.92888709 101.48657642 -47 142 C-47.80308594 143.00675781 -48.60617188 144.01351562 -49.43359375 145.05078125 C-54.97349176 151.88203826 -60.99396761 158.19649062 -67.1875 164.4375 C-67.93580078 165.19506592 -68.68410156 165.95263184 -69.45507812 166.7331543 C-85.4500592 182.63813714 -102.87215073 187.20586336 -124.98852539 187.18530273 C-132.44585035 187.09391959 -139.64966912 186.31523474 -147 185 C-148.53720703 184.72542969 -148.53720703 184.72542969 -150.10546875 184.4453125 C-161.21299914 182.06827165 -172.41459646 177.59587373 -179 168 C-180.92299062 164.15401875 -180.45112895 159.78579835 -179.42333984 155.71728516 C-178.58666544 153.21349416 -177.66314292 150.76551196 -176.6875 148.3125 C-176.33284668 147.4062085 -175.97819336 146.49991699 -175.61279297 145.56616211 C-169.31192244 129.91652671 -161.39426651 115.29380904 -151 102 C-150.26136719 101.05125 -149.52273437 100.1025 -148.76171875 99.125 C-137.27318513 84.75923149 -124.50805772 71.3244044 -110 60 C-109.37174316 59.5059668 -108.74348633 59.01193359 -108.09619141 58.50292969 C-33.51652845 0 -33.51652845 0 0 0 Z " fill="#000000" transform="translate(235,169)"/>
<path d="M0 0 C15.2630515 8.51845914 24.265553 19.531106 32 35 C35.56986973 33.61575089 35.56986973 33.61575089 38.9375 31.8125 C42.00549465 30.60389605 43.82685794 31.14569252 47 32 C49.73227645 33.21818101 52.37453708 34.56732353 55 36 C55.10054688 35.29488281 55.20109375 34.58976562 55.3046875 33.86328125 C58.67018079 20.00425551 70.5828749 9.45495472 82 2 C90.49959 -2.86900548 100.12287094 -6.55875368 110 -7 C113.08725301 -5.76941663 115.27610225 -4.84979301 117.4375 -2.3125 C118.28351961 1.16558063 118.21020203 4.61282536 117 8 C113.77314007 11.27478359 109.67964265 12.1269014 105.375 13.3125 C98.56324741 15.31150906 92.83957363 17.88680826 87 22 C85.6696875 22.86625 85.6696875 22.86625 84.3125 23.75 C77.75962659 30.12576872 72.01719975 39.02148344 70 48 C70.58265625 48.26941406 71.1653125 48.53882813 71.765625 48.81640625 C80.30511902 53.33994941 86.92873994 61.88739475 91.203125 70.39453125 C94.65880769 81.69325848 91.23876232 93.50990892 86.25 103.75 C85.8375 104.4925 85.425 105.235 85 106 C81.58089153 105.38393758 78.42703327 104.52324035 75.1640625 103.3359375 C73.81441406 102.86027344 73.81441406 102.86027344 72.4375 102.375 C70.56694604 101.70991415 68.69969508 101.03546234 66.8359375 100.3515625 C61.44491934 98.4724076 57.55405588 97.31473238 52 99 C49.73929869 102.39105197 49.66474061 103.94261414 49.4375 107.9453125 C49.32535156 109.68361328 49.32535156 109.68361328 49.2109375 111.45703125 C49.0698647 113.91013054 48.92924253 116.36325578 48.7890625 118.81640625 C48.71429688 119.97269531 48.63953125 121.12898437 48.5625 122.3203125 C48.50191406 123.38523926 48.44132812 124.45016602 48.37890625 125.54736328 C48.25386719 126.3567334 48.12882812 127.16610352 48 128 C45.26094655 129.36952673 43.02912668 129.12621361 40 129 C39.34 128.67 38.68 128.34 38 128 C37.65283203 125.56323242 37.65283203 125.56323242 37.5078125 122.35546875 C37.44207031 121.20369141 37.37632812 120.05191406 37.30859375 118.86523438 C37.18680036 116.42547946 37.07214439 113.98535713 36.96484375 111.54492188 C36.89652344 110.38927734 36.82820313 109.23363281 36.7578125 108.04296875 C36.7077002 106.98102295 36.65758789 105.91907715 36.60595703 104.82495117 C35.86363114 101.36425299 34.82329931 100.09370748 32 98 C25.9011491 98.10369991 20.51932881 99.97175573 14.8125 102 C5.40501412 105.29378531 5.40501412 105.29378531 1 106 C0.20192802 104.31551982 -0.58812301 102.62723873 -1.375 100.9375 C-2.03628906 99.52791016 -2.03628906 99.52791016 -2.7109375 98.08984375 C-6.33341699 89.40687017 -7.70028282 79.90383293 -5.41796875 70.63671875 C-1.42462702 61.82948563 6.36599904 53.76444971 14 48 C14.66 48 15.32 48 16 48 C13.51015721 40.9845018 10.43832834 34.98064744 6 29 C5.07380859 27.74316406 5.07380859 27.74316406 4.12890625 26.4609375 C-2.63995115 18.63638674 -12.88618204 15.00949238 -22.5859375 12.26953125 C-28.46916193 10.54645096 -28.46916193 10.54645096 -31.125 7.8125 C-32.40593909 3.69519578 -32.01999803 1.21599187 -31 -3 C-23.00481911 -11.26168692 -8.6695357 -4.01347886 0 0 Z " fill="#000000" transform="translate(213,53)"/>
<path d="M0 0 C1.97636696 -0.01555183 1.97636696 -0.01555183 3.99266052 -0.03141785 C7.60030211 -0.05845002 11.20725169 -0.05376978 14.81494975 -0.04171729 C17.82938409 -0.03458037 20.8436909 -0.04308907 23.85811526 -0.05162269 C30.9709569 -0.07156977 38.0834624 -0.06601214 45.19628906 -0.04394531 C52.52825183 -0.02158477 59.85933399 -0.03917657 67.19121355 -0.0769946 C73.49206108 -0.10825008 79.79263631 -0.11613802 86.0935517 -0.10504085 C89.85422791 -0.09855955 93.61439612 -0.10052735 97.37501335 -0.12436485 C101.5695715 -0.14959959 105.76249293 -0.1259762 109.95703125 -0.09765625 C111.19930481 -0.11137268 112.44157837 -0.12508911 113.72149658 -0.13922119 C123.09895811 -0.01253049 123.09895811 -0.01253049 126.83863831 3.5743866 C129.04321289 6.6628418 129.04321289 6.6628418 129.40258789 8.83862305 C126.99271004 17.28864347 123.99017095 25.31312729 121.04321289 33.6628418 C77.48321289 33.6628418 33.92321289 33.6628418 -10.95678711 33.6628418 C-18.95678711 9.6628418 -18.95678711 9.6628418 -17.95678711 5.6628418 C-13.57852585 -1.10319467 -7.27363792 -0.04998032 0 0 Z " fill="#000000" transform="translate(200.956787109375,333.337158203125)"/>
<path d="M0 0 C37.62 0 75.24 0 114 0 C111.16835671 5.66328658 108.84474574 9.89100712 104.8125 14.5 C104.32982666 15.05824463 103.84715332 15.61648926 103.34985352 16.19165039 C93.40236765 27.5117681 82.6721305 35.05338262 68 39 C67.34 39 66.68 39 66 39 C66.02618408 40.12494873 66.05236816 41.24989746 66.0793457 42.40893555 C66.17001745 46.59265157 66.22731037 50.77628121 66.2746582 54.96069336 C66.2997639 56.76976132 66.33385595 58.57872822 66.37719727 60.38745117 C66.43802579 62.99162751 66.46624809 65.59446031 66.48828125 68.19921875 C66.51408768 69.00461594 66.5398941 69.81001312 66.56648254 70.63981628 C66.56861459 74.93270504 66.39288731 76.50644062 63.62182617 79.98754883 C60.82482663 82.1344589 59.51329176 83 56 83 C52.06385984 81.45641562 50.36773424 80.55160136 48 77 C47.82792072 74.09815132 47.76798896 71.29455753 47.8046875 68.39453125 C47.8075174 67.55532639 47.81034729 66.71612152 47.81326294 65.85148621 C47.82445615 63.17167897 47.84955899 60.49220619 47.875 57.8125 C47.88503092 55.99544754 47.89415657 54.17838983 47.90234375 52.36132812 C47.92439266 47.90742325 47.95891649 43.45376833 48 39 C47.38647675 38.86944717 46.77295349 38.73889435 46.14083862 38.60438538 C45.33365387 38.42951096 44.52646912 38.25463654 43.69482422 38.07446289 C42.89567596 37.90266006 42.09652771 37.73085724 41.27316284 37.55384827 C23.80837618 33.29861338 10.2682405 17.78969496 1.21484375 3.15234375 C0 1 0 1 0 0 Z " fill="#000000" transform="translate(199,383)"/>
<path d="M0 0 C1.18023743 -0.0212796 2.36047485 -0.0425592 3.57647705 -0.06448364 C4.55513229 -0.08945419 4.55513229 -0.08945419 5.55355835 -0.1149292 C7.71150571 -0.16313485 9.86824362 -0.18067276 12.02667236 -0.19387817 C13.53019569 -0.21181563 15.03371539 -0.23005942 16.53723145 -0.24859619 C19.69135197 -0.28158575 22.84504789 -0.29697682 25.99932861 -0.30276489 C30.03027847 -0.31351626 34.05720244 -0.38877389 38.08701706 -0.48025322 C41.19452207 -0.53993669 44.3010676 -0.55421479 47.40909576 -0.55621719 C48.89393751 -0.56460021 50.37878489 -0.58938702 51.86306 -0.63125229 C63.45507466 -0.93209262 63.45507466 -0.93209262 67.53553772 2.72956848 C69.32972347 5.26606514 70.743954 7.76039921 72.10479736 10.54830933 C72.84943207 11.70317128 73.61106593 12.84746295 74.39776611 13.97409058 C75.6691118 15.91125442 76.93993856 17.84875893 78.21026611 19.78659058 C80.08380537 22.60187049 80.08380537 22.60187049 82.34307861 25.27877808 C84.10479736 27.54830933 84.10479736 27.54830933 84.10479736 29.54830933 C49.12479736 29.54830933 14.14479736 29.54830933 -21.89520264 29.54830933 C-20.31285852 26.3836211 -18.69778682 23.62974009 -16.74285889 20.70455933 C-16.13119873 19.78803589 -15.51953857 18.87151245 -14.88934326 17.92721558 C-14.25190186 16.97717651 -13.61446045 16.02713745 -12.95770264 15.04830933 C-12.32412842 14.09827026 -11.6905542 13.1482312 -11.03778076 12.16940308 C-7.57124087 6.98599643 -7.57124087 6.98599643 -5.89520264 4.54830933 C-5.5008049 3.85313202 -5.10640717 3.15795471 -4.70005798 2.44171143 C-2.89520264 0.54830933 -2.89520264 0.54830933 0 0 Z " fill="#000000" transform="translate(224.89520263671875,288.4516906738281)"/>
<path d="M0 0 C8.58 0 17.16 0 26 0 C26.92232422 2.80177734 26.92232422 2.80177734 27.86328125 5.66015625 C28.46877325 7.4905516 29.07428803 9.3209395 29.68041992 11.15112305 C30.30144867 13.02908137 30.91930805 14.90808684 31.53710938 16.78710938 C33.92387061 24.07674612 33.92387061 24.07674612 36.79296875 31.18359375 C38 34 38 34 38 37 C21.5 37 5 37 -12 37 C-11.22888911 33.14444554 -10.34569744 29.93842144 -9.00390625 26.2890625 C-8.61009766 25.20882813 -8.21628906 24.12859375 -7.81054688 23.015625 C-7.19276367 21.33726562 -7.19276367 21.33726562 -6.5625 19.625 C-5.74909607 17.4096629 -4.93783786 15.19353658 -4.12890625 12.9765625 C-3.76869385 11.99768066 -3.40848145 11.01879883 -3.03735352 10.01025391 C-1.90128444 6.71354135 -0.9579446 3.3528061 0 0 Z " fill="#000000" transform="translate(243,236)"/>
<path d="M0 0 C3.96 0 7.92 0 12 0 C12.99 7.59 13.98 15.18 15 23 C9.06 23 3.12 23 -3 23 C-2.01 15.41 -1.02 7.82 0 0 Z " fill="#000000" transform="translate(250,197)"/>
</svg>
