<?xml version="1.0" encoding="UTF-8"?>
<svg version="1.1" xmlns="http://www.w3.org/2000/svg" width="512" height="512">
<path d="M0 0 C1.53864307 1.31274115 3.06116911 2.64474454 4.5625 4 C5.49642578 4.82951172 5.49642578 4.82951172 6.44921875 5.67578125 C11.58909533 10.51535044 15.54186665 16.22490845 19.5625 22 C20.61308594 21.51789062 21.66367187 21.03578125 22.74609375 20.5390625 C43.10988461 11.31414865 62.66044112 9.58822703 84.265625 16.67578125 C103.15539512 24.26302304 117.68993346 37.56829928 126.5625 56 C127.25 58.8515625 127.25 58.8515625 127.5625 61 C128.57828125 61.15855469 129.5940625 61.31710938 130.640625 61.48046875 C152.14922911 65.03636901 169.73421351 75.18715249 182.5625 93 C193.85538447 109.46002208 198.55122907 130.42967445 194.890625 150.1796875 C194.37045586 152.50081962 193.81783189 154.81515988 193.21875 157.1171875 C192.57499141 159.945127 192.21108929 162.12223121 192.5625 165 C193.86258912 167.07815506 193.86258912 167.07815506 195.6875 169 C207.21044256 183.15343248 210.98433076 202.14812488 209.5625 220 C207.98329969 234.87169817 202.98294204 248.24391117 193.5625 260 C192.91796875 260.81984375 192.2734375 261.6396875 191.609375 262.484375 C184.9334293 270.44605838 175.77829681 278.84647693 165.5 281.4375 C163.26009077 282.14223498 163.26009077 282.14223498 161.5625 284 C159.69709308 288.48261821 158.84205153 293.30130707 157.7890625 298.0234375 C153.62733311 316.12661528 140.32718541 330.59642376 125.25 340.75 C108.590192 350.89177577 88.37053942 353.75479022 69.2265625 350.34765625 C61.32237439 348.41717844 54.5117466 345.19714858 47.48828125 341.1953125 C44.74326336 339.69477955 44.74326336 339.69477955 42.63476562 340.68457031 C40.26623886 342.1880602 38.4588903 343.8613357 36.48046875 345.8515625 C35.71283203 346.62113281 34.94519531 347.39070313 34.15429688 348.18359375 C33.36087891 348.98925781 32.56746094 349.79492188 31.75 350.625 C30.96818359 351.40746094 30.18636719 352.18992187 29.38085938 352.99609375 C25.11245609 357.2965903 20.99826628 361.67814382 17.0637207 366.28662109 C15.5625 368 15.5625 368 13.9387207 369.35742188 C11.95269824 371.72782442 11.84814681 373.83959843 11.4296875 376.8828125 C11.26339844 378.05070312 11.09710938 379.21859375 10.92578125 380.421875 C10.68408203 382.25492187 10.68408203 382.25492187 10.4375 384.125 C10.26863281 385.32382812 10.09976563 386.52265625 9.92578125 387.7578125 C9.45068646 391.16951681 9.00010127 394.58330364 8.5625 398 C8.45502441 398.82298584 8.34754883 399.64597168 8.23681641 400.49389648 C4.21989453 433.42314407 13.80145584 464.88504025 20.5625 497 C-9.7975 497 -40.1575 497 -71.4375 497 C-69.87 490.049375 -68.3025 483.09875 -66.6875 475.9375 C-58.85610778 441.153453 -58.85610778 441.153453 -56.25 405.6875 C-56.2490332 403.74508423 -56.2490332 403.74508423 -56.24804688 401.76342773 C-56.3146553 382.16195205 -57.45003254 362.57207781 -58.4375 343 C-59.12583923 342.93837173 -59.81417847 342.87674347 -60.52337646 342.81324768 C-61.42541809 342.72864792 -62.32745972 342.64404816 -63.25683594 342.55688477 C-64.59871979 342.43350487 -64.59871979 342.43350487 -65.9677124 342.30763245 C-73.38969997 341.38316259 -80.15027878 336.67623977 -86.5625 333.0625 C-87.16707031 332.72645752 -87.77164063 332.39041504 -88.39453125 332.04418945 C-91.90452869 330.04485421 -94.71783458 327.83263612 -97.6875 325.125 C-100.08419564 323.42601916 -101.54754259 322.85840131 -104.47216797 323.32373047 C-108.5082926 324.39153807 -112.35912869 325.82585895 -116.23046875 327.37890625 C-131.15643609 333.3258812 -150.93910398 331.22501132 -165.46044922 325.15429688 C-185.37336846 316.42356849 -199.28389806 302.39518413 -207.9765625 282.47265625 C-210.40863304 275.92313296 -211.58188393 270.30935342 -211.92700195 263.37915039 C-212.33703653 255.42300197 -212.69058746 250.58124744 -218.625 244.9375 C-219.61113281 244.11121094 -220.59726563 243.28492188 -221.61328125 242.43359375 C-232.91885477 232.69172335 -238.45439205 215.37753262 -240.4375 201 C-241.65942638 178.27686912 -236.20286245 158.21153299 -221.0625 140.75 C-216.94733445 136.33131453 -212.54180154 132.25898322 -207.4375 129 C-206.7775 129 -206.1175 129 -205.4375 129 C-205.48390625 127.9584375 -205.5303125 126.916875 -205.578125 125.84375 C-206.22779534 104.93371628 -200.00322721 86.39046821 -186.00390625 70.6171875 C-171.9353826 56.27029123 -152.62075554 47.11550266 -132.42529297 46.8215332 C-123.86982118 46.78383941 -123.86982118 46.78383941 -121.4375 48 C-121.30794922 47.12601563 -121.30794922 47.12601563 -121.17578125 46.234375 C-117.73589342 26.16310292 -106.15379656 8.89043209 -89.73828125 -2.89453125 C-62.31679758 -20.38586817 -26.04884633 -20.3039346 0 0 Z M0.5625 291 C-1.36983034 294.99901343 -2.13882413 299.08721238 -2.9375 303.4375 C-3.1746875 304.55705078 -3.411875 305.67660156 -3.65625 306.83007812 C-5.31813118 314.78539003 -6.64415738 322.49628653 -6.75 330.625 C-6.77900391 331.37523437 -6.80800781 332.12546875 -6.83789062 332.8984375 C-6.87929519 336.49108008 -6.74903724 338.57221752 -4.60546875 341.515625 C-2.46210715 343.26448997 -2.46210715 343.26448997 0.5625 343.125 C10.70083765 340.91536231 20.43879557 334.36209612 27.5625 327 C27.5625 323.02180301 25.62998581 320.94985006 23.4375 317.8125 C16.86163358 308.02064214 13.28583631 297.4253458 10.5625 286 C6.86793632 286 3.21880647 288.70887648 0.5625 291 Z M-57.4375 289 C-56.01832247 293.69697334 -54.07200621 297.94419765 -51.75 302.25 C-51.2226123 303.23299072 -51.2226123 303.23299072 -50.68457031 304.23583984 C-47.65513573 309.78435952 -44.239131 314.94744671 -40.4375 320 C-39.756875 320.969375 -39.07625 321.93875 -38.375 322.9375 C-36.01240737 325.45251796 -33.58461267 326.64101953 -30.4375 328 C-21.67501914 322.15834609 -20.32031847 312.42840619 -18.171875 302.828125 C-17.3118991 298.99492669 -17.3118991 298.99492669 -17.4375 295 C-18.05753906 295.02320313 -18.67757812 295.04640625 -19.31640625 295.0703125 C-31.02633393 295.30894276 -42.13641836 293.87516379 -53.14453125 289.8046875 C-55.34701622 288.88962069 -55.34701622 288.88962069 -57.4375 289 Z M-70.4375 291 C-71.91216398 292.87548543 -73.3405383 294.76386667 -74.75 296.6875 C-77.02575937 299.76823872 -79.28765807 302.81901545 -81.73046875 305.76953125 C-83.6400866 307.79658583 -83.6400866 307.79658583 -83.4375 310 C-81.08778386 311.30035771 -78.73325663 312.59029469 -76.375 313.875 C-75.71822266 314.23980469 -75.06144531 314.60460937 -74.38476562 314.98046875 C-68.61537354 318.10674032 -63.14709087 320.40664187 -56.4375 320 C-57.71298475 315.96530333 -59.1987968 312.19173454 -61.0390625 308.3828125 C-61.77382812 306.85527344 -61.77382812 306.85527344 -62.5234375 305.296875 C-63.03132813 304.25015625 -63.53921875 303.2034375 -64.0625 302.125 C-64.578125 301.05507813 -65.09375 299.98515625 -65.625 298.8828125 C-66.89263521 296.25364318 -68.1635566 293.62611698 -69.4375 291 C-69.7675 291 -70.0975 291 -70.4375 291 Z " fill="#000000" transform="translate(271.4375,15)"/>
</svg>
